<svg width="134" height="141" viewBox="0 0 134 141" fill="none" xmlns="http://www.w3.org/2000/svg">
<g clip-path="url(#clip0_1127_17)">
<path d="M62.15 94L60.93 93.26L59.3 92.19L56.94 90.37L54.66 88.47L52.21 86.08L50.5 84.26L47.97 81.12L45.28 76.99L44 73.44L43.82 73.38C57.11 68.94 66.7 56.28 66.7 41.35C66.7 22.72 51.77 7.60999 33.35 7.60999C14.93 7.60999 0 22.71 0 41.35C0 49.78 3.06 57.48 8.11 63.39C8.62 64.19 9.28 65.21 10.47 67.07C15.31 73.08 20.14 79.08 24.98 85.09L32.32 93.76L36.8 98.8L48.29 113.91L55.3 124.07L64.19 140.75V95.25L63.46 94.84L62.16 94.01L62.15 94Z" fill="#C74342"/>
<path d="M133.04 33.38C133.04 14.94 117.96 0 99.35 0C80.74 0 65.66 14.94 65.66 33.38C65.66 50.66 78.92 64.88 95.91 66.58C96.24 66.61 96.57 66.63 96.9 66.65L96.71 66.75L83.58 76.58L71.99 86.9L64.19 95.98V140.73L71.52 125.54L78.7 112.74L84.15 104.9L92.16 94.74L100.5 84.67L114.37 69.56L116.27 67.41L119.82 63.45L121.39 61.63L122.88 59.16L125.11 56.35L128.14 50.72C131.25 45.67 133.04 39.73 133.04 33.38Z" fill="#9A2624"/>
</g>
<defs>
<clipPath id="clip0_1127_17">
<rect width="133.04" height="140.74" fill="white"/>
</clipPath>
</defs>
</svg>
