<svg width="35" height="60" viewBox="0 0 35 60" fill="none" xmlns="http://www.w3.org/2000/svg">
<g clip-path="url(#clip0_1123_5)">
<path d="M29.92 0H4.83C2.16 0 0 2.16 0 4.83V54.97C0 57.64 2.16 59.8 4.83 59.8H29.92C32.59 59.8 34.75 57.64 34.75 54.97V4.83C34.75 2.16 32.59 0 29.92 0ZM12.96 2.96H21.79C22.04 2.96 22.24 3.16 22.24 3.41C22.24 3.66 22.04 3.86 21.79 3.86H12.96C12.71 3.86 12.51 3.66 12.51 3.41C12.51 3.16 12.71 2.96 12.96 2.96ZM17.63 57.82C16.52 57.97 15.51 57.19 15.37 56.08C15.22 54.97 16 53.96 17.11 53.82C18.22 53.67 19.23 54.45 19.37 55.56C19.52 56.67 18.74 57.68 17.63 57.82ZM30.9 51.07C30.9 51.66 30.43 52.13 29.84 52.13H4.9C4.31 52.13 3.84 51.66 3.84 51.07V7.67C3.84 7.08 4.31 6.61 4.9 6.61H29.84C30.43 6.61 30.9 7.08 30.9 7.67V51.06V51.07Z" fill="#A30D11"/>
</g>
<defs>
<clipPath id="clip0_1123_5">
<rect width="34.75" height="59.8" fill="white"/>
</clipPath>
</defs>
</svg>
